<svg id="svg" fill="#000000" stroke="#000000" width="110" height="110" version="1.1" viewBox="143 143 514 514" xmlns="http://www.w3.org/2000/svg" stroke-width="0">
    <g id="IconSvg_bgCarrier" stroke-width="0"></g>
    <g id="IconSvg_tracerCarrier" stroke-linecap="round" stroke-linejoin="round" stroke="#CCCCCC" stroke-width="0">
      <g xmlns="http://www.w3.org/2000/svg">
  <path d="m530.57 449.33 0.21094-9.1328-18.262-6.2969-5.457-15.848 10.602-16.164-5.7734-7.1367-18.055 6.9258-14.379-8.7109-2.3086-19.207-9.0273-1.7852-9.3398 16.898-16.582 2.625-13.863-13.223-7.9766 4.4102 3.6719 18.895-11.02 12.594-19.207-1.1562-3.3594 8.5 15.008 12.176-0.31641 16.793-15.43 11.547 2.9375 8.7109 19.312-0.31641 10.496 13.016-4.4102 18.789 7.8711 4.7227 14.59-12.699 16.48 3.2539 8.7109 17.215 9.0273-1.3633 3.043-19.102 14.695-8.082 17.738 7.6602 5.9844-6.9258-9.9727-16.582 6.0859-15.641zm-73.684 28.445c-18.789 0-34.113-15.324-34.113-34.008 0-18.789 15.324-34.113 34.113-34.113 18.789 0 34.113 15.324 34.113 34.113s-15.324 34.008-34.113 34.008z"></path>
  <path d="m400 182.31c-120.18 0-217.69 97.508-217.69 217.69s97.508 217.69 217.69 217.69 217.69-97.508 217.69-217.69-97.508-217.69-217.69-217.69zm138.86 273.21-20.363 6.1914-3.043 7.9766 11.02 18.262-14.168 16.062-19.629-8.3984-7.4531 4.0938-3.3594 20.992-21.098 3.2539-9.5508-18.996-8.3984-1.6797-16.059 13.961-18.363-10.918 4.9336-20.781-5.3516-6.7188-8.6055 0.10547-1.7852 11.441-26.871 4.1992-13.016-25.82-13.121-2.625-21.832 18.996-23.195-14.066 6.6133-28.129-8.3984-10.391-28.969 0.52344-8.8164-25.715 23.195-17.32 0.31641-13.328-22.461-18.262 9.7617-25.297 28.863 1.6797 8.8164-10.078-5.5625-28.445 23.824-13.121 21.098 19.836 13.121-1.9961 14.066-25.297 26.66 5.2461 3.3594 28.758 11.441 6.9258 27.078-10.391 17.004 21.098-15.957 24.363 4.3047 12.594 11.754 4.0938 3.2539-5.7734 20.992 4.0938 2.5195 21.098 7.3477 4.4102 19.941-7.6602 13.434 16.688-11.652 17.844 2.7305 8.082 20.152 6.9258z"></path>
  <path d="m401.36 385.83c0 6.7188-1.7852 13.328-5.2461 18.996l-8.082-0.41797-5.2461 13.434c-5.5625 3.2539-11.859 4.9336-18.367 4.9336-20.363 0-36.945-16.582-36.945-36.945s16.582-36.945 36.945-36.945c20.461 0 36.941 16.582 36.941 36.945z"></path>
  <path d="m456.57 375.86-2.9375 5.3516-8.5 1.3633-15.535-14.59-18.684 10.285 4.0938 20.887-5.668 6.4023-3.9883-0.21094c2.9375-6.0859 4.4102-12.699 4.4102-19.523 0-24.98-20.363-45.344-45.344-45.344-24.98 0.003906-45.238 20.367-45.238 45.348s20.363 45.344 45.344 45.344c6.6133 0 13.121-1.4688 19.102-4.1992l13.227 10.812-0.21094 8.6055-17.109 12.699 6.9258 20.258 4.1992-0.10547-0.62891 3.9883-14.695 2.3086-12.07-24.141-21.203-4.1992-20.363 17.633-12.805-7.6602 6.1914-26.238-13.539-16.793-26.977 0.41797-4.8281-14.066 21.621-16.164 0.41797-21.516-20.992-17.004 5.3516-13.961 26.871 1.5742 14.168-16.27-5.1445-26.449 13.121-7.2422 19.629 18.473 21.309-3.3594 13.121-23.617 14.59 2.9375 3.1484 26.766 18.473 11.125 25.191-9.6562 9.3398 11.652-14.801 22.566 6.9258 20.363z"></path>
  <path d="m482.6 443.77c0 14.168-11.547 25.609-25.715 25.609s-25.715-11.547-25.715-25.609c0-14.168 11.547-25.715 25.715-25.715 14.172 0 25.715 11.547 25.715 25.715z"></path>
 </g>

      </g>
     <g id="IconSvg_iconCarrier">
      <g xmlns="http://www.w3.org/2000/svg">
  <path d="m530.57 449.33 0.21094-9.1328-18.262-6.2969-5.457-15.848 10.602-16.164-5.7734-7.1367-18.055 6.9258-14.379-8.7109-2.3086-19.207-9.0273-1.7852-9.3398 16.898-16.582 2.625-13.863-13.223-7.9766 4.4102 3.6719 18.895-11.02 12.594-19.207-1.1562-3.3594 8.5 15.008 12.176-0.31641 16.793-15.43 11.547 2.9375 8.7109 19.312-0.31641 10.496 13.016-4.4102 18.789 7.8711 4.7227 14.59-12.699 16.48 3.2539 8.7109 17.215 9.0273-1.3633 3.043-19.102 14.695-8.082 17.738 7.6602 5.9844-6.9258-9.9727-16.582 6.0859-15.641zm-73.684 28.445c-18.789 0-34.113-15.324-34.113-34.008 0-18.789 15.324-34.113 34.113-34.113 18.789 0 34.113 15.324 34.113 34.113s-15.324 34.008-34.113 34.008z"></path>
  <path d="m400 182.31c-120.18 0-217.69 97.508-217.69 217.69s97.508 217.69 217.69 217.69 217.69-97.508 217.69-217.69-97.508-217.69-217.69-217.69zm138.86 273.21-20.363 6.1914-3.043 7.9766 11.02 18.262-14.168 16.062-19.629-8.3984-7.4531 4.0938-3.3594 20.992-21.098 3.2539-9.5508-18.996-8.3984-1.6797-16.059 13.961-18.363-10.918 4.9336-20.781-5.3516-6.7188-8.6055 0.10547-1.7852 11.441-26.871 4.1992-13.016-25.82-13.121-2.625-21.832 18.996-23.195-14.066 6.6133-28.129-8.3984-10.391-28.969 0.52344-8.8164-25.715 23.195-17.32 0.31641-13.328-22.461-18.262 9.7617-25.297 28.863 1.6797 8.8164-10.078-5.5625-28.445 23.824-13.121 21.098 19.836 13.121-1.9961 14.066-25.297 26.66 5.2461 3.3594 28.758 11.441 6.9258 27.078-10.391 17.004 21.098-15.957 24.363 4.3047 12.594 11.754 4.0938 3.2539-5.7734 20.992 4.0938 2.5195 21.098 7.3477 4.4102 19.941-7.6602 13.434 16.688-11.652 17.844 2.7305 8.082 20.152 6.9258z"></path>
  <path d="m401.36 385.83c0 6.7188-1.7852 13.328-5.2461 18.996l-8.082-0.41797-5.2461 13.434c-5.5625 3.2539-11.859 4.9336-18.367 4.9336-20.363 0-36.945-16.582-36.945-36.945s16.582-36.945 36.945-36.945c20.461 0 36.941 16.582 36.941 36.945z"></path>
  <path d="m456.57 375.86-2.9375 5.3516-8.5 1.3633-15.535-14.59-18.684 10.285 4.0938 20.887-5.668 6.4023-3.9883-0.21094c2.9375-6.0859 4.4102-12.699 4.4102-19.523 0-24.98-20.363-45.344-45.344-45.344-24.98 0.003906-45.238 20.367-45.238 45.348s20.363 45.344 45.344 45.344c6.6133 0 13.121-1.4688 19.102-4.1992l13.227 10.812-0.21094 8.6055-17.109 12.699 6.9258 20.258 4.1992-0.10547-0.62891 3.9883-14.695 2.3086-12.07-24.141-21.203-4.1992-20.363 17.633-12.805-7.6602 6.1914-26.238-13.539-16.793-26.977 0.41797-4.8281-14.066 21.621-16.164 0.41797-21.516-20.992-17.004 5.3516-13.961 26.871 1.5742 14.168-16.27-5.1445-26.449 13.121-7.2422 19.629 18.473 21.309-3.3594 13.121-23.617 14.59 2.9375 3.1484 26.766 18.473 11.125 25.191-9.6562 9.3398 11.652-14.801 22.566 6.9258 20.363z"></path>
  <path d="m482.6 443.77c0 14.168-11.547 25.609-25.715 25.609s-25.715-11.547-25.715-25.609c0-14.168 11.547-25.715 25.715-25.715 14.172 0 25.715 11.547 25.715 25.715z"></path>
 </g>

      </g>
      </svg>